<?xml version="1.0" encoding="UTF-8" standalone="no"?><!DOCTYPE svg PUBLIC "-//W3C//DTD SVG 1.1//EN" "http://www.w3.org/Graphics/SVG/1.1/DTD/svg11.dtd"><svg width="100%" height="100%" viewBox="0 0 1024 1024" version="1.1" xmlns="http://www.w3.org/2000/svg" xmlns:xlink="http://www.w3.org/1999/xlink" xml:space="preserve" xmlns:serif="http://www.serif.com/" style="fill-rule:evenodd;clip-rule:evenodd;stroke-linejoin:round;stroke-miterlimit:2;"><g transform="matrix(1,0,0,1,70.169312,6)"><g><g transform="matrix(153.439153,0,0,153.439153,59,916)"><path d="M0.348,-0.03c-0.014,0.015 -0.031,0.026 -0.051,0.035c-0.02,0.008 -0.043,0.012 -0.068,0.012c-0.031,0 -0.059,-0.007 -0.083,-0.02c-0.024,-0.013 -0.044,-0.032 -0.06,-0.057c-0.016,-0.024 -0.028,-0.053 -0.036,-0.086c-0.008,-0.033 -0.012,-0.07 -0.012,-0.11c0,-0.04 0.004,-0.077 0.013,-0.11c0.008,-0.033 0.021,-0.062 0.037,-0.086c0.016,-0.024 0.036,-0.042 0.06,-0.056c0.024,-0.013 0.051,-0.019 0.083,-0.019c0.027,0 0.051,0.005 0.07,0.014c0.02,0.009 0.035,0.02 0.047,0.031l-0.051,0.085c-0.007,-0.008 -0.016,-0.015 -0.025,-0.02c-0.01,-0.005 -0.022,-0.008 -0.036,-0.008c-0.028,0 -0.049,0.016 -0.064,0.046c-0.014,0.031 -0.022,0.072 -0.022,0.122c0,0.051 0.007,0.091 0.022,0.122c0.015,0.031 0.037,0.046 0.067,0.046c0.014,-0 0.026,-0.003 0.036,-0.008c0.01,-0.005 0.019,-0.013 0.026,-0.022l0.047,0.088Z" style="fill:#e0b601;fill-rule:nonzero;"/></g><g transform="matrix(153.439153,0,0,153.439153,112.857143,916)"><path d="M0.348,-0.03c-0.014,0.015 -0.031,0.026 -0.051,0.035c-0.02,0.008 -0.043,0.012 -0.068,0.012c-0.031,0 -0.059,-0.007 -0.083,-0.02c-0.024,-0.013 -0.044,-0.032 -0.06,-0.057c-0.016,-0.024 -0.028,-0.053 -0.036,-0.086c-0.008,-0.033 -0.012,-0.07 -0.012,-0.11c0,-0.04 0.004,-0.077 0.013,-0.11c0.008,-0.033 0.021,-0.062 0.037,-0.086c0.016,-0.024 0.036,-0.042 0.06,-0.056c0.024,-0.013 0.051,-0.019 0.083,-0.019c0.027,0 0.051,0.005 0.07,0.014c0.02,0.009 0.035,0.02 0.047,0.031l-0.051,0.085c-0.007,-0.008 -0.016,-0.015 -0.025,-0.02c-0.01,-0.005 -0.022,-0.008 -0.036,-0.008c-0.028,0 -0.049,0.016 -0.064,0.046c-0.014,0.031 -0.022,0.072 -0.022,0.122c0,0.051 0.007,0.091 0.022,0.122c0.015,0.031 0.037,0.046 0.067,0.046c0.014,-0 0.026,-0.003 0.036,-0.008c0.01,-0.005 0.019,-0.013 0.026,-0.022l0.047,0.088Z" style="fill:#e0b601;fill-rule:nonzero;"/></g><g transform="matrix(153.439153,0,0,153.439153,166.714286,916)"><path d="M0.204,-0.442c0,0.02 -0.006,0.036 -0.019,0.049c-0.012,0.013 -0.027,0.02 -0.045,0.02c-0.019,0 -0.035,-0.007 -0.047,-0.02c-0.012,-0.013 -0.018,-0.029 -0.018,-0.049c0,-0.019 0.006,-0.035 0.018,-0.048c0.012,-0.013 0.027,-0.02 0.047,-0.02c0.019,0 0.034,0.007 0.046,0.02c0.012,0.013 0.018,0.029 0.018,0.048Zm0,0.375c0,0.019 -0.006,0.036 -0.019,0.049c-0.012,0.013 -0.027,0.02 -0.045,0.02c-0.019,-0 -0.035,-0.007 -0.047,-0.02c-0.012,-0.013 -0.018,-0.03 -0.018,-0.049c0,-0.019 0.006,-0.035 0.018,-0.049c0.012,-0.014 0.027,-0.021 0.047,-0.021c0.019,0 0.034,0.007 0.046,0.021c0.012,0.014 0.018,0.03 0.018,0.049Z" style="fill:#e0b601;fill-rule:nonzero;"/></g></g></g></svg>