<?xml version="1.0" encoding="UTF-8" standalone="no"?><!DOCTYPE svg PUBLIC "-//W3C//DTD SVG 1.1//EN" "http://www.w3.org/Graphics/SVG/1.1/DTD/svg11.dtd"><svg width="100%" height="100%" viewBox="0 0 1024 1024" version="1.1" xmlns="http://www.w3.org/2000/svg" xmlns:xlink="http://www.w3.org/1999/xlink" xml:space="preserve" xmlns:serif="http://www.serif.com/" style="fill-rule:evenodd;clip-rule:evenodd;stroke-linejoin:round;stroke-miterlimit:2;"><g transform="matrix(1,0,0,1,104,29.443894)"><g><g transform="matrix(400,0,0,400,270.562242,513.556106)"><path d="M0.367,-0l-0.118,-0.271l-0.119,0.271l-0.125,-0l0.177,-0.373l-0.16,-0.335l0.125,0l0.105,0.244l0.104,-0.244l0.123,0l-0.161,0.335l0.178,0.373l-0.129,-0Z" style="fill-rule:nonzero;"/></g><g transform="matrix(400,0,0,400,470.962242,513.556106)"><path d="M0.527,-0.353c0,0.112 -0.024,0.199 -0.071,0.26c-0.047,0.062 -0.116,0.093 -0.208,0.093l-0.177,-0l0,-0.708l0.178,0c0.091,0 0.159,0.031 0.207,0.093c0.047,0.062 0.071,0.15 0.071,0.262Zm-0.12,0c0,-0.042 -0.004,-0.079 -0.012,-0.11c-0.008,-0.031 -0.019,-0.057 -0.033,-0.078c-0.014,-0.021 -0.031,-0.036 -0.05,-0.046c-0.019,-0.01 -0.04,-0.015 -0.063,-0.015l-0.057,0l0,0.498l0.057,-0c0.023,0 0.044,-0.005 0.063,-0.015c0.019,-0.01 0.036,-0.026 0.05,-0.047c0.014,-0.021 0.025,-0.047 0.033,-0.077c0.008,-0.031 0.012,-0.067 0.012,-0.108Z" style="fill-rule:nonzero;"/></g></g></g></svg>